<svg width="442" height="236" viewBox="0 0 442 236" fill="none" xmlns="http://www.w3.org/2000/svg">
<path d="M12.7897 223.6V224.656H10.3057V232H9.20167V224.656H6.72967V223.6H12.7897ZM17.7603 231.244C17.1443 231.852 16.3963 232.156 15.5163 232.156C14.6363 232.156 13.8883 231.852 13.2723 231.244C12.6643 230.636 12.3603 229.888 12.3603 229C12.3603 228.112 12.6643 227.364 13.2723 226.756C13.8883 226.148 14.6363 225.844 15.5163 225.844C16.3963 225.844 17.1443 226.148 17.7603 226.756C18.3763 227.364 18.6843 228.112 18.6843 229C18.6843 229.888 18.3763 230.636 17.7603 231.244ZM15.5163 231.136C16.1163 231.136 16.6203 230.932 17.0283 230.524C17.4363 230.116 17.6403 229.608 17.6403 229C17.6403 228.392 17.4363 227.884 17.0283 227.476C16.6203 227.068 16.1163 226.864 15.5163 226.864C14.9243 226.864 14.4243 227.068 14.0163 227.476C13.6083 227.884 13.4043 228.392 13.4043 229C13.4043 229.608 13.6083 230.116 14.0163 230.524C14.4243 230.932 14.9243 231.136 15.5163 231.136ZM24.883 223.6H25.927V232H24.883V230.968C24.363 231.76 23.607 232.156 22.615 232.156C21.775 232.156 21.059 231.852 20.467 231.244C19.875 230.628 19.579 229.88 19.579 229C19.579 228.12 19.875 227.376 20.467 226.768C21.059 226.152 21.775 225.844 22.615 225.844C23.607 225.844 24.363 226.24 24.883 227.032V223.6ZM22.747 231.148C23.355 231.148 23.863 230.944 24.271 230.536C24.679 230.12 24.883 229.608 24.883 229C24.883 228.392 24.679 227.884 24.271 227.476C23.863 227.06 23.355 226.852 22.747 226.852C22.147 226.852 21.643 227.06 21.235 227.476C20.827 227.884 20.623 228.392 20.623 229C20.623 229.608 20.827 230.12 21.235 230.536C21.643 230.944 22.147 231.148 22.747 231.148ZM32.4768 226H33.5208V232H32.4768V230.968C31.9568 231.76 31.2008 232.156 30.2088 232.156C29.3688 232.156 28.6528 231.852 28.0608 231.244C27.4688 230.628 27.1728 229.88 27.1728 229C27.1728 228.12 27.4688 227.376 28.0608 226.768C28.6528 226.152 29.3688 225.844 30.2088 225.844C31.2008 225.844 31.9568 226.24 32.4768 227.032V226ZM30.3408 231.148C30.9488 231.148 31.4568 230.944 31.8648 230.536C32.2728 230.12 32.4768 229.608 32.4768 229C32.4768 228.392 32.2728 227.884 31.8648 227.476C31.4568 227.06 30.9488 226.852 30.3408 226.852C29.7408 226.852 29.2368 227.06 28.8288 227.476C28.4208 227.884 28.2168 228.392 28.2168 229C28.2168 229.608 28.4208 230.12 28.8288 230.536C29.2368 230.944 29.7408 231.148 30.3408 231.148ZM39.2905 226H40.4065L37.9585 232.372C37.7025 233.052 37.3425 233.568 36.8785 233.92C36.4225 234.28 35.8945 234.44 35.2945 234.4V233.428C36.0305 233.484 36.5705 233.076 36.9145 232.204L37.0225 231.976L34.4065 226H35.5225L37.5625 230.704L39.2905 226Z" fill="white" fill-opacity="0.55"/>
<path d="M84.5348 223.6L81.5588 228.604V232H80.4428V228.592L77.4788 223.6H78.7268L81.0068 227.536L83.2868 223.6H84.5348ZM84.9537 229.48C85.0577 230.016 85.3017 230.432 85.6857 230.728C86.0777 231.024 86.5577 231.172 87.1257 231.172C87.9177 231.172 88.4937 230.88 88.8537 230.296L89.7417 230.8C89.1577 231.704 88.2777 232.156 87.1017 232.156C86.1497 232.156 85.3737 231.86 84.7737 231.268C84.1817 230.668 83.8857 229.912 83.8857 229C83.8857 228.096 84.1777 227.344 84.7617 226.744C85.3457 226.144 86.1017 225.844 87.0297 225.844C87.9097 225.844 88.6257 226.156 89.1777 226.78C89.7377 227.396 90.0177 228.14 90.0177 229.012C90.0177 229.164 90.0057 229.32 89.9817 229.48H84.9537ZM87.0297 226.828C86.4697 226.828 86.0057 226.988 85.6377 227.308C85.2697 227.62 85.0417 228.04 84.9537 228.568H88.9617C88.8737 228 88.6497 227.568 88.2897 227.272C87.9297 226.976 87.5097 226.828 87.0297 226.828ZM91.8834 227.62C91.8834 227.852 91.9994 228.04 92.2314 228.184C92.4634 228.32 92.7434 228.432 93.0714 228.52C93.3994 228.6 93.7274 228.696 94.0554 228.808C94.3834 228.912 94.6634 229.096 94.8954 229.36C95.1274 229.616 95.2434 229.948 95.2434 230.356C95.2434 230.9 95.0314 231.336 94.6074 231.664C94.1914 231.992 93.6554 232.156 92.9994 232.156C92.4154 232.156 91.9154 232.028 91.4994 231.772C91.0834 231.516 90.7874 231.176 90.6114 230.752L91.5114 230.236C91.6074 230.524 91.7874 230.752 92.0514 230.92C92.3154 231.088 92.6314 231.172 92.9994 231.172C93.3434 231.172 93.6274 231.108 93.8514 230.98C94.0754 230.844 94.1874 230.636 94.1874 230.356C94.1874 230.124 94.0714 229.94 93.8394 229.804C93.6074 229.66 93.3274 229.548 92.9994 229.468C92.6714 229.38 92.3434 229.28 92.0154 229.168C91.6874 229.056 91.4074 228.872 91.1754 228.616C90.9434 228.36 90.8274 228.032 90.8274 227.632C90.8274 227.112 91.0274 226.684 91.4274 226.348C91.8354 226.012 92.3434 225.844 92.9514 225.844C93.4394 225.844 93.8714 225.956 94.2474 226.18C94.6314 226.396 94.9194 226.7 95.1114 227.092L94.2354 227.584C94.0194 227.072 93.5914 226.816 92.9514 226.816C92.6554 226.816 92.4034 226.888 92.1954 227.032C91.9874 227.168 91.8834 227.364 91.8834 227.62ZM99.5091 227.008H97.9131V230.26C97.9131 230.556 97.9691 230.768 98.0811 230.896C98.2011 231.016 98.3811 231.08 98.6211 231.088C98.8611 231.088 99.1571 231.08 99.5091 231.064V232C98.5971 232.12 97.9291 232.048 97.5051 231.784C97.0811 231.512 96.8691 231.004 96.8691 230.26V227.008H95.6811V226H96.8691V224.632L97.9131 224.32V226H99.5091V227.008ZM101.172 229.48C101.276 230.016 101.52 230.432 101.904 230.728C102.296 231.024 102.776 231.172 103.344 231.172C104.136 231.172 104.712 230.88 105.072 230.296L105.96 230.8C105.376 231.704 104.496 232.156 103.32 232.156C102.368 232.156 101.592 231.86 100.992 231.268C100.4 230.668 100.104 229.912 100.104 229C100.104 228.096 100.396 227.344 100.98 226.744C101.564 226.144 102.32 225.844 103.248 225.844C104.128 225.844 104.844 226.156 105.396 226.78C105.956 227.396 106.236 228.14 106.236 229.012C106.236 229.164 106.224 229.32 106.2 229.48H101.172ZM103.248 226.828C102.688 226.828 102.224 226.988 101.856 227.308C101.488 227.62 101.26 228.04 101.172 228.568H105.18C105.092 228 104.868 227.568 104.508 227.272C104.148 226.976 103.728 226.828 103.248 226.828ZM108.481 227.008C108.825 226.264 109.449 225.892 110.353 225.892V226.984C109.841 226.96 109.401 227.096 109.033 227.392C108.665 227.688 108.481 228.164 108.481 228.82V232H107.437V226H108.481V227.008ZM116.014 223.6H117.058V232H116.014V230.968C115.494 231.76 114.738 232.156 113.746 232.156C112.906 232.156 112.19 231.852 111.598 231.244C111.006 230.628 110.71 229.88 110.71 229C110.71 228.12 111.006 227.376 111.598 226.768C112.19 226.152 112.906 225.844 113.746 225.844C114.738 225.844 115.494 226.24 116.014 227.032V223.6ZM113.878 231.148C114.486 231.148 114.994 230.944 115.402 230.536C115.81 230.12 116.014 229.608 116.014 229C116.014 228.392 115.81 227.884 115.402 227.476C114.994 227.06 114.486 226.852 113.878 226.852C113.278 226.852 112.774 227.06 112.366 227.476C111.958 227.884 111.754 228.392 111.754 229C111.754 229.608 111.958 230.12 112.366 230.536C112.774 230.944 113.278 231.148 113.878 231.148ZM123.608 226H124.652V232H123.608V230.968C123.088 231.76 122.332 232.156 121.34 232.156C120.5 232.156 119.784 231.852 119.192 231.244C118.6 230.628 118.304 229.88 118.304 229C118.304 228.12 118.6 227.376 119.192 226.768C119.784 226.152 120.5 225.844 121.34 225.844C122.332 225.844 123.088 226.24 123.608 227.032V226ZM121.472 231.148C122.08 231.148 122.588 230.944 122.996 230.536C123.404 230.12 123.608 229.608 123.608 229C123.608 228.392 123.404 227.884 122.996 227.476C122.588 227.06 122.08 226.852 121.472 226.852C120.872 226.852 120.368 227.06 119.96 227.476C119.552 227.884 119.348 228.392 119.348 229C119.348 229.608 119.552 230.12 119.96 230.536C120.368 230.944 120.872 231.148 121.472 231.148ZM130.421 226H131.537L129.089 232.372C128.833 233.052 128.473 233.568 128.009 233.92C127.553 234.28 127.025 234.44 126.425 234.4V233.428C127.161 233.484 127.701 233.076 128.045 232.204L128.153 231.976L125.537 226H126.653L128.693 230.704L130.421 226Z" fill="white" fill-opacity="0.55"/>
<path d="M163.122 227.044C163.762 227.164 164.286 227.44 164.694 227.872C165.102 228.304 165.306 228.852 165.306 229.516C165.306 230.332 165.026 230.976 164.466 231.448C163.906 231.92 163.226 232.156 162.426 232.156C161.786 232.156 161.218 232.012 160.722 231.724C160.226 231.428 159.874 231.004 159.666 230.452L160.602 229.9C160.85 230.676 161.458 231.064 162.426 231.064C162.946 231.064 163.37 230.928 163.698 230.656C164.026 230.384 164.19 230.004 164.19 229.516C164.19 229.028 164.026 228.648 163.698 228.376C163.37 228.096 162.946 227.956 162.426 227.956H162.138L161.694 227.272L163.638 224.644H159.906V223.6H164.946V224.584L163.122 227.044ZM174.512 223.6H175.556V232H174.512V230.968C173.992 231.76 173.236 232.156 172.244 232.156C171.404 232.156 170.688 231.852 170.096 231.244C169.504 230.628 169.208 229.88 169.208 229C169.208 228.12 169.504 227.376 170.096 226.768C170.688 226.152 171.404 225.844 172.244 225.844C173.236 225.844 173.992 226.24 174.512 227.032V223.6ZM172.376 231.148C172.984 231.148 173.492 230.944 173.9 230.536C174.308 230.12 174.512 229.608 174.512 229C174.512 228.392 174.308 227.884 173.9 227.476C173.492 227.06 172.984 226.852 172.376 226.852C171.776 226.852 171.272 227.06 170.864 227.476C170.456 227.884 170.252 228.392 170.252 229C170.252 229.608 170.456 230.12 170.864 230.536C171.272 230.944 171.776 231.148 172.376 231.148ZM177.798 232.132C177.582 232.132 177.398 232.056 177.246 231.904C177.094 231.752 177.018 231.568 177.018 231.352C177.018 231.136 177.094 230.952 177.246 230.8C177.398 230.648 177.582 230.572 177.798 230.572C178.022 230.572 178.206 230.648 178.35 230.8C178.502 230.952 178.578 231.136 178.578 231.352C178.578 231.568 178.502 231.752 178.35 231.904C178.206 232.056 178.022 232.132 177.798 232.132ZM188.024 226H189.068V232H188.024V230.968C187.504 231.76 186.748 232.156 185.756 232.156C184.916 232.156 184.2 231.852 183.608 231.244C183.016 230.628 182.72 229.88 182.72 229C182.72 228.12 183.016 227.376 183.608 226.768C184.2 226.152 184.916 225.844 185.756 225.844C186.748 225.844 187.504 226.24 188.024 227.032V226ZM185.888 231.148C186.496 231.148 187.004 230.944 187.412 230.536C187.82 230.12 188.024 229.608 188.024 229C188.024 228.392 187.82 227.884 187.412 227.476C187.004 227.06 186.496 226.852 185.888 226.852C185.288 226.852 184.784 227.06 184.376 227.476C183.968 227.884 183.764 228.392 183.764 229C183.764 229.608 183.968 230.12 184.376 230.536C184.784 230.944 185.288 231.148 185.888 231.148ZM195.629 226H196.661V231.748C196.661 232.636 196.361 233.324 195.761 233.812C195.161 234.308 194.441 234.556 193.601 234.556C192.929 234.556 192.349 234.428 191.861 234.172C191.373 233.924 191.005 233.564 190.757 233.092L191.669 232.576C191.997 233.248 192.649 233.584 193.625 233.584C194.249 233.584 194.737 233.42 195.089 233.092C195.449 232.764 195.629 232.316 195.629 231.748V230.896C195.101 231.696 194.349 232.096 193.373 232.096C192.517 232.096 191.793 231.792 191.201 231.184C190.609 230.576 190.313 229.836 190.313 228.964C190.313 228.092 190.609 227.356 191.201 226.756C191.793 226.148 192.517 225.844 193.373 225.844C194.357 225.844 195.109 226.24 195.629 227.032V226ZM191.969 230.488C192.377 230.896 192.885 231.1 193.493 231.1C194.101 231.1 194.609 230.896 195.017 230.488C195.425 230.08 195.629 229.572 195.629 228.964C195.629 228.364 195.425 227.86 195.017 227.452C194.609 227.044 194.101 226.84 193.493 226.84C192.885 226.84 192.377 227.044 191.969 227.452C191.561 227.86 191.357 228.364 191.357 228.964C191.357 229.572 191.561 230.08 191.969 230.488ZM203.307 231.244C202.691 231.852 201.943 232.156 201.063 232.156C200.183 232.156 199.435 231.852 198.819 231.244C198.211 230.636 197.907 229.888 197.907 229C197.907 228.112 198.211 227.364 198.819 226.756C199.435 226.148 200.183 225.844 201.063 225.844C201.943 225.844 202.691 226.148 203.307 226.756C203.923 227.364 204.231 228.112 204.231 229C204.231 229.888 203.923 230.636 203.307 231.244ZM201.063 231.136C201.663 231.136 202.167 230.932 202.575 230.524C202.983 230.116 203.187 229.608 203.187 229C203.187 228.392 202.983 227.884 202.575 227.476C202.167 227.068 201.663 226.864 201.063 226.864C200.471 226.864 199.971 227.068 199.563 227.476C199.155 227.884 198.951 228.392 198.951 229C198.951 229.608 199.155 230.116 199.563 230.524C199.971 230.932 200.471 231.136 201.063 231.136Z" fill="white" fill-opacity="0.55"/>
<path d="M246.769 229.36V230.404H245.749V232H244.633V230.404H240.349V229.36L243.361 223.6H244.561L241.549 229.36H244.633V226.984H245.749V229.36H246.769ZM255.781 223.6H256.825V232H255.781V230.968C255.261 231.76 254.505 232.156 253.513 232.156C252.673 232.156 251.957 231.852 251.365 231.244C250.773 230.628 250.477 229.88 250.477 229C250.477 228.12 250.773 227.376 251.365 226.768C251.957 226.152 252.673 225.844 253.513 225.844C254.505 225.844 255.261 226.24 255.781 227.032V223.6ZM253.645 231.148C254.253 231.148 254.761 230.944 255.169 230.536C255.577 230.12 255.781 229.608 255.781 229C255.781 228.392 255.577 227.884 255.169 227.476C254.761 227.06 254.253 226.852 253.645 226.852C253.045 226.852 252.541 227.06 252.133 227.476C251.725 227.884 251.521 228.392 251.521 229C251.521 229.608 251.725 230.12 252.133 230.536C252.541 230.944 253.045 231.148 253.645 231.148ZM259.067 232.132C258.851 232.132 258.667 232.056 258.515 231.904C258.363 231.752 258.287 231.568 258.287 231.352C258.287 231.136 258.363 230.952 258.515 230.8C258.667 230.648 258.851 230.572 259.067 230.572C259.291 230.572 259.475 230.648 259.619 230.8C259.771 230.952 259.847 231.136 259.847 231.352C259.847 231.568 259.771 231.752 259.619 231.904C259.475 232.056 259.291 232.132 259.067 232.132ZM269.293 226H270.337V232H269.293V230.968C268.773 231.76 268.017 232.156 267.025 232.156C266.185 232.156 265.469 231.852 264.877 231.244C264.285 230.628 263.989 229.88 263.989 229C263.989 228.12 264.285 227.376 264.877 226.768C265.469 226.152 266.185 225.844 267.025 225.844C268.017 225.844 268.773 226.24 269.293 227.032V226ZM267.157 231.148C267.765 231.148 268.273 230.944 268.681 230.536C269.089 230.12 269.293 229.608 269.293 229C269.293 228.392 269.089 227.884 268.681 227.476C268.273 227.06 267.765 226.852 267.157 226.852C266.557 226.852 266.053 227.06 265.645 227.476C265.237 227.884 265.033 228.392 265.033 229C265.033 229.608 265.237 230.12 265.645 230.536C266.053 230.944 266.557 231.148 267.157 231.148ZM276.899 226H277.931V231.748C277.931 232.636 277.631 233.324 277.031 233.812C276.431 234.308 275.711 234.556 274.871 234.556C274.199 234.556 273.619 234.428 273.131 234.172C272.643 233.924 272.275 233.564 272.027 233.092L272.939 232.576C273.267 233.248 273.919 233.584 274.895 233.584C275.519 233.584 276.007 233.42 276.359 233.092C276.719 232.764 276.899 232.316 276.899 231.748V230.896C276.371 231.696 275.619 232.096 274.643 232.096C273.787 232.096 273.063 231.792 272.471 231.184C271.879 230.576 271.583 229.836 271.583 228.964C271.583 228.092 271.879 227.356 272.471 226.756C273.063 226.148 273.787 225.844 274.643 225.844C275.627 225.844 276.379 226.24 276.899 227.032V226ZM273.239 230.488C273.647 230.896 274.155 231.1 274.763 231.1C275.371 231.1 275.879 230.896 276.287 230.488C276.695 230.08 276.899 229.572 276.899 228.964C276.899 228.364 276.695 227.86 276.287 227.452C275.879 227.044 275.371 226.84 274.763 226.84C274.155 226.84 273.647 227.044 273.239 227.452C272.831 227.86 272.627 228.364 272.627 228.964C272.627 229.572 272.831 230.08 273.239 230.488ZM284.577 231.244C283.961 231.852 283.213 232.156 282.333 232.156C281.453 232.156 280.705 231.852 280.089 231.244C279.481 230.636 279.177 229.888 279.177 229C279.177 228.112 279.481 227.364 280.089 226.756C280.705 226.148 281.453 225.844 282.333 225.844C283.213 225.844 283.961 226.148 284.577 226.756C285.193 227.364 285.501 228.112 285.501 229C285.501 229.888 285.193 230.636 284.577 231.244ZM282.333 231.136C282.933 231.136 283.437 230.932 283.845 230.524C284.253 230.116 284.457 229.608 284.457 229C284.457 228.392 284.253 227.884 283.845 227.476C283.437 227.068 282.933 226.864 282.333 226.864C281.741 226.864 281.241 227.068 280.833 227.476C280.425 227.884 280.221 228.392 280.221 229C280.221 229.608 280.425 230.116 280.833 230.524C281.241 230.932 281.741 231.136 282.333 231.136Z" fill="white" fill-opacity="0.55"/>
<path d="M324.523 226.876C325.315 226.876 325.983 227.112 326.527 227.584C327.079 228.048 327.355 228.692 327.355 229.516C327.355 230.332 327.075 230.976 326.515 231.448C325.955 231.92 325.275 232.156 324.475 232.156C323.835 232.156 323.263 232.004 322.759 231.7C322.255 231.388 321.903 230.94 321.703 230.356L322.651 229.816C322.763 230.224 322.979 230.536 323.299 230.752C323.619 230.96 324.011 231.064 324.475 231.064C325.003 231.064 325.431 230.928 325.759 230.656C326.087 230.384 326.251 230.004 326.251 229.516C326.251 229.028 326.087 228.648 325.759 228.376C325.431 228.096 325.011 227.956 324.499 227.956H322.123L322.435 223.6H327.031V224.644H323.443L323.299 226.876H324.523ZM336.559 223.6H337.603V232H336.559V230.968C336.039 231.76 335.283 232.156 334.291 232.156C333.451 232.156 332.735 231.852 332.143 231.244C331.551 230.628 331.255 229.88 331.255 229C331.255 228.12 331.551 227.376 332.143 226.768C332.735 226.152 333.451 225.844 334.291 225.844C335.283 225.844 336.039 226.24 336.559 227.032V223.6ZM334.423 231.148C335.031 231.148 335.539 230.944 335.947 230.536C336.355 230.12 336.559 229.608 336.559 229C336.559 228.392 336.355 227.884 335.947 227.476C335.539 227.06 335.031 226.852 334.423 226.852C333.823 226.852 333.319 227.06 332.911 227.476C332.503 227.884 332.299 228.392 332.299 229C332.299 229.608 332.503 230.12 332.911 230.536C333.319 230.944 333.823 231.148 334.423 231.148ZM339.845 232.132C339.629 232.132 339.445 232.056 339.293 231.904C339.141 231.752 339.065 231.568 339.065 231.352C339.065 231.136 339.141 230.952 339.293 230.8C339.445 230.648 339.629 230.572 339.845 230.572C340.069 230.572 340.253 230.648 340.397 230.8C340.549 230.952 340.625 231.136 340.625 231.352C340.625 231.568 340.549 231.752 340.397 231.904C340.253 232.056 340.069 232.132 339.845 232.132ZM350.071 226H351.115V232H350.071V230.968C349.551 231.76 348.795 232.156 347.803 232.156C346.963 232.156 346.247 231.852 345.655 231.244C345.063 230.628 344.767 229.88 344.767 229C344.767 228.12 345.063 227.376 345.655 226.768C346.247 226.152 346.963 225.844 347.803 225.844C348.795 225.844 349.551 226.24 350.071 227.032V226ZM347.935 231.148C348.543 231.148 349.051 230.944 349.459 230.536C349.867 230.12 350.071 229.608 350.071 229C350.071 228.392 349.867 227.884 349.459 227.476C349.051 227.06 348.543 226.852 347.935 226.852C347.335 226.852 346.831 227.06 346.423 227.476C346.015 227.884 345.811 228.392 345.811 229C345.811 229.608 346.015 230.12 346.423 230.536C346.831 230.944 347.335 231.148 347.935 231.148ZM357.676 226H358.708V231.748C358.708 232.636 358.408 233.324 357.808 233.812C357.208 234.308 356.488 234.556 355.648 234.556C354.976 234.556 354.396 234.428 353.908 234.172C353.42 233.924 353.052 233.564 352.804 233.092L353.716 232.576C354.044 233.248 354.696 233.584 355.672 233.584C356.296 233.584 356.784 233.42 357.136 233.092C357.496 232.764 357.676 232.316 357.676 231.748V230.896C357.148 231.696 356.396 232.096 355.42 232.096C354.564 232.096 353.84 231.792 353.248 231.184C352.656 230.576 352.36 229.836 352.36 228.964C352.36 228.092 352.656 227.356 353.248 226.756C353.84 226.148 354.564 225.844 355.42 225.844C356.404 225.844 357.156 226.24 357.676 227.032V226ZM354.016 230.488C354.424 230.896 354.932 231.1 355.54 231.1C356.148 231.1 356.656 230.896 357.064 230.488C357.472 230.08 357.676 229.572 357.676 228.964C357.676 228.364 357.472 227.86 357.064 227.452C356.656 227.044 356.148 226.84 355.54 226.84C354.932 226.84 354.424 227.044 354.016 227.452C353.608 227.86 353.404 228.364 353.404 228.964C353.404 229.572 353.608 230.08 354.016 230.488ZM365.354 231.244C364.738 231.852 363.99 232.156 363.11 232.156C362.23 232.156 361.482 231.852 360.866 231.244C360.258 230.636 359.954 229.888 359.954 229C359.954 228.112 360.258 227.364 360.866 226.756C361.482 226.148 362.23 225.844 363.11 225.844C363.99 225.844 364.738 226.148 365.354 226.756C365.97 227.364 366.278 228.112 366.278 229C366.278 229.888 365.97 230.636 365.354 231.244ZM363.11 231.136C363.71 231.136 364.214 230.932 364.622 230.524C365.03 230.116 365.234 229.608 365.234 229C365.234 228.392 365.03 227.884 364.622 227.476C364.214 227.068 363.71 226.864 363.11 226.864C362.518 226.864 362.018 227.068 361.61 227.476C361.202 227.884 360.998 228.392 360.998 229C360.998 229.608 361.202 230.116 361.61 230.524C362.018 230.932 362.518 231.136 363.11 231.136Z" fill="white" fill-opacity="0.55"/>
<path d="M399.541 226.504C400.381 226.504 401.073 226.768 401.617 227.296C402.161 227.816 402.433 228.492 402.433 229.324C402.433 230.156 402.161 230.836 401.617 231.364C401.073 231.892 400.381 232.156 399.541 232.156C398.693 232.156 397.997 231.892 397.453 231.364C396.917 230.836 396.649 230.156 396.649 229.324C396.649 228.676 396.817 228.116 397.153 227.644L399.853 223.6H401.125L399.145 226.528C399.321 226.512 399.453 226.504 399.541 226.504ZM398.245 230.608C398.581 230.928 399.013 231.088 399.541 231.088C400.069 231.088 400.497 230.928 400.825 230.608C401.161 230.28 401.329 229.852 401.329 229.324C401.329 228.796 401.161 228.372 400.825 228.052C400.497 227.732 400.069 227.572 399.541 227.572C399.005 227.572 398.573 227.732 398.245 228.052C397.917 228.372 397.753 228.796 397.753 229.324C397.753 229.852 397.917 230.28 398.245 230.608ZM411.53 223.6H412.574V232H411.53V230.968C411.01 231.76 410.254 232.156 409.262 232.156C408.422 232.156 407.706 231.852 407.114 231.244C406.522 230.628 406.226 229.88 406.226 229C406.226 228.12 406.522 227.376 407.114 226.768C407.706 226.152 408.422 225.844 409.262 225.844C410.254 225.844 411.01 226.24 411.53 227.032V223.6ZM409.394 231.148C410.002 231.148 410.51 230.944 410.918 230.536C411.326 230.12 411.53 229.608 411.53 229C411.53 228.392 411.326 227.884 410.918 227.476C410.51 227.06 410.002 226.852 409.394 226.852C408.794 226.852 408.29 227.06 407.882 227.476C407.474 227.884 407.27 228.392 407.27 229C407.27 229.608 407.474 230.12 407.882 230.536C408.29 230.944 408.794 231.148 409.394 231.148ZM414.815 232.132C414.599 232.132 414.415 232.056 414.263 231.904C414.111 231.752 414.035 231.568 414.035 231.352C414.035 231.136 414.111 230.952 414.263 230.8C414.415 230.648 414.599 230.572 414.815 230.572C415.039 230.572 415.223 230.648 415.367 230.8C415.519 230.952 415.595 231.136 415.595 231.352C415.595 231.568 415.519 231.752 415.367 231.904C415.223 232.056 415.039 232.132 414.815 232.132ZM425.041 226H426.085V232H425.041V230.968C424.521 231.76 423.765 232.156 422.773 232.156C421.933 232.156 421.217 231.852 420.625 231.244C420.033 230.628 419.737 229.88 419.737 229C419.737 228.12 420.033 227.376 420.625 226.768C421.217 226.152 421.933 225.844 422.773 225.844C423.765 225.844 424.521 226.24 425.041 227.032V226ZM422.905 231.148C423.513 231.148 424.021 230.944 424.429 230.536C424.837 230.12 425.041 229.608 425.041 229C425.041 228.392 424.837 227.884 424.429 227.476C424.021 227.06 423.513 226.852 422.905 226.852C422.305 226.852 421.801 227.06 421.393 227.476C420.985 227.884 420.781 228.392 420.781 229C420.781 229.608 420.985 230.12 421.393 230.536C421.801 230.944 422.305 231.148 422.905 231.148ZM432.647 226H433.679V231.748C433.679 232.636 433.379 233.324 432.779 233.812C432.179 234.308 431.459 234.556 430.619 234.556C429.947 234.556 429.367 234.428 428.879 234.172C428.391 233.924 428.023 233.564 427.775 233.092L428.687 232.576C429.015 233.248 429.667 233.584 430.643 233.584C431.267 233.584 431.755 233.42 432.107 233.092C432.467 232.764 432.647 232.316 432.647 231.748V230.896C432.119 231.696 431.367 232.096 430.391 232.096C429.535 232.096 428.811 231.792 428.219 231.184C427.627 230.576 427.331 229.836 427.331 228.964C427.331 228.092 427.627 227.356 428.219 226.756C428.811 226.148 429.535 225.844 430.391 225.844C431.375 225.844 432.127 226.24 432.647 227.032V226ZM428.987 230.488C429.395 230.896 429.903 231.1 430.511 231.1C431.119 231.1 431.627 230.896 432.035 230.488C432.443 230.08 432.647 229.572 432.647 228.964C432.647 228.364 432.443 227.86 432.035 227.452C431.627 227.044 431.119 226.84 430.511 226.84C429.903 226.84 429.395 227.044 428.987 227.452C428.579 227.86 428.375 228.364 428.375 228.964C428.375 229.572 428.579 230.08 428.987 230.488ZM440.325 231.244C439.709 231.852 438.961 232.156 438.081 232.156C437.201 232.156 436.453 231.852 435.837 231.244C435.229 230.636 434.925 229.888 434.925 229C434.925 228.112 435.229 227.364 435.837 226.756C436.453 226.148 437.201 225.844 438.081 225.844C438.961 225.844 439.709 226.148 440.325 226.756C440.941 227.364 441.249 228.112 441.249 229C441.249 229.888 440.941 230.636 440.325 231.244ZM438.081 231.136C438.681 231.136 439.185 230.932 439.593 230.524C440.001 230.116 440.205 229.608 440.205 229C440.205 228.392 440.001 227.884 439.593 227.476C439.185 227.068 438.681 226.864 438.081 226.864C437.489 226.864 436.989 227.068 436.581 227.476C436.173 227.884 435.969 228.392 435.969 229C435.969 229.608 436.173 230.116 436.581 230.524C436.989 230.932 437.489 231.136 438.081 231.136Z" fill="white" fill-opacity="0.55"/>
<rect width="1.11335" height="204" fill="white" fill-opacity="0.03"/>
<rect x="442" width="1.00002" height="442" transform="rotate(90 442 0)" fill="white" fill-opacity="0.03"/>
<rect x="442" y="29" width="1.00002" height="442" transform="rotate(90 442 29)" fill="white" fill-opacity="0.03"/>
<rect x="442" y="58" width="1.00002" height="442" transform="rotate(90 442 58)" fill="white" fill-opacity="0.03"/>
<rect x="442" y="87" width="1.00002" height="442" transform="rotate(90 442 87)" fill="white" fill-opacity="0.03"/>
<rect x="442" y="116" width="1.00002" height="442" transform="rotate(90 442 116)" fill="white" fill-opacity="0.03"/>
<rect x="442" y="145" width="1.00002" height="442" transform="rotate(90 442 145)" fill="white" fill-opacity="0.03"/>
<rect x="442" y="174" width="1.00002" height="442" transform="rotate(90 442 174)" fill="white" fill-opacity="0.03"/>
<rect x="442" y="203" width="1.00002" height="442" transform="rotate(90 442 203)" fill="white" fill-opacity="0.03"/>
<rect x="40.0806" width="1.11335" height="204" fill="white" fill-opacity="0.03"/>
<rect x="80.1613" width="1.11335" height="204" fill="white" fill-opacity="0.03"/>
<rect x="120.242" width="1.11335" height="204" fill="white" fill-opacity="0.03"/>
<rect x="160.322" width="1.11335" height="204" fill="white" fill-opacity="0.03"/>
<rect x="200.403" width="1.11335" height="204" fill="white" fill-opacity="0.03"/>
<rect x="240.484" width="1.11335" height="204" fill="white" fill-opacity="0.03"/>
<rect x="280.564" width="1.11335" height="204" fill="white" fill-opacity="0.03"/>
<rect x="320.645" width="1.11335" height="204" fill="white" fill-opacity="0.03"/>
<rect x="360.725" width="1.11335" height="204" fill="white" fill-opacity="0.03"/>
<rect x="400.806" width="1.11335" height="204" fill="white" fill-opacity="0.03"/>
<rect x="440.887" width="1.11335" height="204" fill="white" fill-opacity="0.03"/>
</svg>
